<svg width="15" height="14" viewBox="0 0 15 14" fill="none" xmlns="http://www.w3.org/2000/svg">
<path d="M9.94419 1.16666H5.05585C2.93252 1.16666 1.66669 2.43249 1.66669 4.55582V9.43832C1.66669 11.5675 2.93252 12.8333 5.05585 12.8333H9.93835C12.0617 12.8333 13.3275 11.5675 13.3275 9.44416V4.55582C13.3334 2.43249 12.0675 1.16666 9.94419 1.16666ZM9.83335 7.43749H7.93752V9.33332C7.93752 9.57249 7.73919 9.77082 7.50002 9.77082C7.26085 9.77082 7.06252 9.57249 7.06252 9.33332V7.43749H5.16669C4.92752 7.43749 4.72919 7.23916 4.72919 6.99999C4.72919 6.76082 4.92752 6.56249 5.16669 6.56249H7.06252V4.66666C7.06252 4.42749 7.26085 4.22916 7.50002 4.22916C7.73919 4.22916 7.93752 4.42749 7.93752 4.66666V6.56249H9.83335C10.0725 6.56249 10.2709 6.76082 10.2709 6.99999C10.2709 7.23916 10.0725 7.43749 9.83335 7.43749Z" fill="url(#paint0_linear_1_1200)"/>
<defs>
<linearGradient id="paint0_linear_1_1200" x1="0.209081" y1="-0.777788" x2="12.1188" y2="11.126" gradientUnits="userSpaceOnUse">
<stop stop-color="#00AB4F" stop-opacity="0"/>
<stop offset="1" stop-color="#00AB4F"/>
</linearGradient>
</defs>
</svg>
